Coordinates
version=1
nRows=20
nColumns=38
inDegrees=no

Units are S.I. units (second, meters, Newtons, ...)
If the header above contains a line with 'inDegrees', this indicates whether rotational values are in degrees (yes) or radians (no).

endheader
time	pelvis_tilt	pelvis_list	pelvis_rotation	pelvis_tx	pelvis_ty	pelvis_tz	hip_flexion_r	hip_adduction_r	hip_rotation_r	knee_angle_r	ankle_angle_r	subtalar_angle_r	mtp_angle_r	hip_flexion_l	hip_adduction_l	hip_rotation_l	knee_angle_l	ankle_angle_l	subtalar_angle_l	mtp_angle_l	lumbar_extension	lumbar_bending	lumbar_rotation	arm_flex_r	arm_add_r	arm_rot_r	elbow_flex_r	pro_sup_r	wrist_flex_r	wrist_dev_r	arm_flex_l	arm_add_l	arm_rot_l	elbow_flex_l	pro_sup_l	wrist_flex_l	wrist_dev_l
10	2.95736	1.25804	-1.47205	0.692604	1.71636	0.954242	-0.21283	-0.0742898	-0.280564	0.35344	0.0448474	0	0	-0.343537	0.0119813	-0.300652	0.118947	0.0346137	0	0	-0.373764	-0.00343246	0.0997334	0.788153	-0.379023	0.449806	1.03632	1.5708	0	0	0.717879	-0.178297	0.194941	1.15286	0.84608	0	0
10.01	2.95957	1.25409	-1.47371	0.69207	1.71463	0.9545	-0.210978	-0.0758705	-0.280605	0.360509	0.0434491	0	0	-0.339006	0.0104266	-0.303643	0.131191	0.0367635	0	0	-0.378805	-0.00597394	0.100918	0.785799	-0.373167	0.428674	1.03273	1.5708	0	0	0.721522	-0.166126	0.187223	1.14774	0.854362	0	0
10.02	2.96567	1.2499	-1.47763	0.691369	1.71306	0.954737	-0.210209	-0.0789283	-0.283643	0.36745	0.0426998	0	0	-0.335299	0.00999515	-0.305128	0.142628	0.0384813	0	0	-0.383493	-0.00956953	0.0995158	0.785365	-0.372036	0.418976	1.03136	1.5708	0	0	0.721643	-0.156023	0.176111	1.1508	0.867676	0	0
10.03	2.96897	1.24714	-1.48119	0.690836	1.71097	0.954792	-0.205129	-0.0817254	-0.282752	0.377202	0.0419341	0	0	-0.329419	0.00952773	-0.307786	0.154281	0.0400653	0	0	-0.38821	-0.0130183	0.100628	0.78282	-0.370038	0.402906	1.03403	1.5708	0	0	0.720363	-0.147161	0.162705	1.16027	0.882344	0	0
10.04	2.97265	1.24446	-1.48495	0.690272	1.70882	0.954805	-0.199741	-0.0847158	-0.282155	0.387347	0.0414353	0	0	-0.323408	0.00915241	-0.310129	0.165916	0.0417158	0	0	-0.392989	-0.0166655	0.100948	0.781424	-0.370014	0.393148	1.03671	1.5708	0	0	0.717778	-0.1401	0.148482	1.17267	0.899196	0	0
10.05	2.97678	1.24189	-1.4888	0.689644	1.70658	0.954791	-0.194018	-0.0879649	-0.281866	0.397925	0.0410154	0	0	-0.317276	0.00887529	-0.311911	0.177295	0.0431342	0	0	-0.398049	-0.0202949	0.100678	0.780804	-0.370614	0.387067	1.03815	1.5708	0	0	0.715242	-0.134452	0.135618	1.18488	0.913007	0	0
10.06	2.98027	1.23934	-1.49186	0.689027	1.70425	0.954748	-0.188042	-0.0910478	-0.28157	0.408686	0.0404529	0	0	-0.311288	0.00839388	-0.313895	0.188109	0.0442882	0	0	-0.403159	-0.0237577	0.0998325	0.783556	-0.373193	0.390423	1.03564	1.5708	0	0	0.713183	-0.13012	0.124791	1.19476	0.92256	0	0
10.07	2.98287	1.23578	-1.4944	0.688451	1.70184	0.954743	-0.183016	-0.0937986	-0.280594	0.419261	0.0394149	0	0	-0.306945	0.00776593	-0.316259	0.197813	0.0452065	0	0	-0.409962	-0.0267956	0.100373	0.784206	-0.373177	0.385299	1.03327	1.5708	0	0	0.712897	-0.125532	0.116508	1.20105	0.926757	0	0
10.08	2.98564	1.23209	-1.49734	0.687951	1.69939	0.954747	-0.178039	-0.0966158	-0.279417	0.429803	0.0382367	0	0	-0.303161	0.00729808	-0.318665	0.206783	0.045904	0	0	-0.416754	-0.0302104	0.100602	0.787258	-0.374383	0.386506	1.02829	1.5708	0	0	0.713777	-0.121687	0.109304	1.20384	0.928002	0	0
10.09	2.98891	1.2285	-1.50064	0.687383	1.69687	0.954721	-0.172829	-0.099795	-0.278816	0.4406	0.03713	0	0	-0.299539	0.00723938	-0.320472	0.215076	0.0462481	0	0	-0.423451	-0.0337334	0.100456	0.791227	-0.37564	0.389209	1.02263	1.5708	0	0	0.71605	-0.118185	0.102985	1.20345	0.927156	0	0
10.1	2.99132	1.22733	-1.50318	0.686761	1.69427	0.954535	-0.163934	-0.103264	-0.278269	0.453067	0.0361232	0	0	-0.292403	0.00684699	-0.322554	0.224805	0.0469459	0	0	-0.427393	-0.0371279	0.0999564	0.798139	-0.378452	0.399697	1.01423	1.5708	0	0	0.719053	-0.115014	0.0981313	1.19987	0.921593	0	0
10.11	2.99285	1.22905	-1.50525	0.686191	1.69157	0.954218	-0.150975	-0.106666	-0.276544	0.466495	0.0345624	0	0	-0.281875	0.00650072	-0.323831	0.234482	0.047027	0	0	-0.42706	-0.0409699	0.097081	0.816153	-0.383623	0.436282	0.993543	1.5708	0	0	0.72149	-0.114348	0.093567	1.19537	0.913728	0	0
10.12	2.99405	1.2306	-1.50686	0.685686	1.68888	0.95393	-0.138583	-0.109666	-0.275079	0.479224	0.0325626	0	0	-0.271933	0.00589944	-0.325179	0.243428	0.0468217	0	0	-0.426702	-0.0447708	0.0944496	0.832868	-0.382604	0.461474	0.969711	1.5708	0	0	0.725736	-0.114369	0.0920283	1.18974	0.907716	0	0
10.13	2.99431	1.23154	-1.50776	0.685105	1.68612	0.953651	-0.126782	-0.112378	-0.273298	0.491618	0.0302339	0	0	-0.262929	0.00514521	-0.326863	0.251725	0.0464631	0	0	-0.428362	-0.0475028	0.0950238	0.840614	-0.382383	0.466376	0.95955	1.5708	0	0	0.733263	-0.112895	0.0948477	1.18296	0.905441	0	0
10.14	2.99444	1.23363	-1.50872	0.684454	1.68329	0.953262	-0.113188	-0.115281	-0.2713	0.504767	0.0281173	0	0	-0.252576	0.00457951	-0.328783	0.260022	0.0460077	0	0	-0.429192	-0.049992	0.095996	0.847698	-0.382594	0.469494	0.951734	1.5708	0	0	0.741853	-0.111633	0.100109	1.17671	0.906242	0	0
10.15	2.99493	1.23651	-1.51044	0.683831	1.68039	0.952817	-0.0981596	-0.118388	-0.268917	0.518739	0.0261413	0	0	-0.241367	0.00428472	-0.331361	0.2682	0.0453931	0	0	-0.429482	-0.0526169	0.0972462	0.854522	-0.382573	0.471668	0.945143	1.5708	0	0	0.75094	-0.11059	0.106484	1.17117	0.909915	0	0
10.16	2.99623	1.23979	-1.51304	0.6832	1.67754	0.952376	-0.0823555	-0.122152	-0.266732	0.533397	0.0240253	0	0	-0.230318	0.00444296	-0.333941	0.275425	0.0442377	0	0	-0.429316	-0.0553459	0.0985232	0.861415	-0.382351	0.473565	0.938295	1.5708	0	0	0.759897	-0.109635	0.113441	1.16621	0.915371	0	0
10.17	2.99638	1.2436	-1.51476	0.682558	1.67469	0.95191	-0.0656441	-0.125633	-0.263828	0.548262	0.0215736	0	0	-0.218954	0.00427309	-0.336798	0.28227	0.042986	0	0	-0.4285	-0.0575155	0.0997877	0.868724	-0.381489	0.475499	0.930292	1.5708	0	0	0.768485	-0.109079	0.120675	1.16147	0.921541	0	0
10.18	2.99569	1.24806	-1.51576	0.681907	1.67183	0.951391	-0.0480512	-0.128652	-0.260226	0.563156	0.0186656	0	0	-0.207177	0.00402163	-0.339585	0.288503	0.0419944	0	0	-0.427053	-0.059198	0.100916	0.876229	-0.380368	0.47803	0.921755	1.5708	0	0	0.776563	-0.108864	0.127272	1.15702	0.927338	0	0
10.19	2.99479	1.25183	-1.51626	0.68124	1.669	0.950912	-0.0313883	-0.13143	-0.257188	0.577994	0.015771	0	0	-0.196875	0.00377173	-0.34168	0.293434	0.0411141	0	0	-0.426156	-0.0604333	0.101482	0.884081	-0.379061	0.48202	0.912275	1.5708	0	0	0.784193	-0.109019	0.133214	1.15256	0.931962	0	0
